/* XPM */
static char *girl[] = {
/* columns rows colors chars-per-pixel */
"32 32 123 2 ",
"   c #606063",
".  c #646464",
"X  c #646465",
"o  c #666667",
"O  c #676769",
"+  c #676868",
"@  c #6A6A6A",
"#  c gray42",
"$  c #6C6C6C",
"%  c #6D6D6E",
"&  c gray43",
"*  c #6F6F6F",
"=  c gray44",
"-  c #717171",
";  c #737372",
":  c gray46",
">  c #777675",
",  c #777677",
"<  c #787877",
"1  c #7A7978",
"2  c #7A7A79",
"3  c #7B7C7A",
"4  c #7B7C7B",
"5  c #7E7E7C",
"6  c #80807D",
"7  c #838380",
"8  c #848481",
"9  c #858582",
"0  c #878783",
"q  c #888784",
"w  c #8B8B86",
"e  c #8D8C88",
"r  c #8D8D88",
"t  c #8E8D89",
"y  c #90908C",
"u  c #93938D",
"i  c #94938E",
"p  c #94948F",
"a  c #969591",
"s  c #969691",
"d  c #989792",
"f  c #989892",
"g  c #9B9A94",
"h  c #9D9C97",
"j  c #9E9D97",
"k  c #9D9D9D",
"l  c #A1A098",
"z  c #A0A099",
"x  c #A2A19A",
"c  c #ABABA2",
"v  c #ACACA4",
"b  c #AEAEAE",
"n  c #B1B0A7",
"m  c #B2B1A8",
"M  c #B4B4AA",
"N  c #B5B4AA",
"B  c #B6B6AC",
"V  c #B9B8AE",
"C  c #B6B6B6",
"Z  c #BBBBB1",
"A  c #BDBDB2",
"S  c #C0BFB4",
"D  c #C1C1B5",
"F  c #C3C1B7",
"G  c #C3C3B7",
"H  c #C4C3B8",
"J  c #C5C4B8",
"K  c #C9C8BC",
"L  c #C9C9BC",
"P  c #CACABD",
"I  c #CCCBBE",
"U  c #CECDBF",
"Y  c #CECEC1",
"T  c #D0CFC1",
"R  c #D1D0C2",
"E  c #D3D3C4",
"W  c #D4D3C5",
"Q  c #D5D5C6",
"!  c #D6D6C8",
"~  c #D7D7C8",
"^  c #D8D8C8",
"/  c #D9D9CA",
"(  c #DBDACB",
")  c #DDDCCB",
"_  c #DCDBCC",
"`  c #DEDDCD",
"'  c #DFDECE",
"]  c #D0D0D0",
"[  c #E3E2D2",
"{  c #E5E4D3",
"}  c #E8E7D6",
"|  c #EAE9D6",
" . c #EBE9D7",
".. c #EBEAD8",
"X. c #EBEBD8",
"o. c #ECEBD9",
"O. c #EDECDA",
"+. c #EDECDC",
"@. c #EFEDDF",
"#. c #F0EFDC",
"$. c #F0F0DD",
"%. c #F4F3DF",
"&. c #EFEEE0",
"*. c #EFEFE2",
"=. c #F0EFE2",
"-. c #F5F4E1",
";. c #F6F5E1",
":. c #F1F0E4",
">. c #F3F2E8",
",. c #F5F4EA",
"<. c #F5F4EC",
"1. c #F6F6ED",
"2. c #F7F6F0",
"3. c #F7F7F0",
"4. c #F8F7F1",
"5. c #F9F8F2",
"6. c #F9F9F3",
"7. c #FBFBF7",
"8. c #FBFBF8",
"9. c #FCFBF9",
"0. c #FCFDFB",
"q. c #FDFDFB",
"w. c white",
/* pixels */
"w.w.w.w.w.w.w.w.w.6.<.@.| | ............&.2.8.w.w.w.w.w.w.w.w.w.",
"w.w.w.w.w.w.w.4.@...........................o.&.q.w.w.w.w.w.w.w.",
"w.w.w.w.w.w.,.| ................................| 2.w.w.w.w.w.w.",
"w.w.w.w.q.@.| ......................................:.w.w.w.w.w.",
"w.w.w.w.O.| o.......................................| >.w.w.w.w.",
"w.w.q.@.| o...................o...............O.....o.| :.w.w.w.",
"w.w.>.......................o.| ..............[ o.......| 6.w.w.",
"w.<.| ......................| O.............{ t z o.......| q.w.",
"w.@.| .................. .|  . ...o. .o. .o.) z t D o.o.o.o.=.w.",
"6.......................| |  .X...| o. .o.W d T : D o.o.o.| o.9.",
":.| ....| o...^ ^ _ ( ! _ _ _ _ ~ ' ^ ) ' l q D #.#.o.o.....| 4.",
"........o.-.i - * * * * % = % : * $ % % % @ @ @ 2 T | o.....o.=.",
"........O.{   c P K P K K K Z % M T Y T T Y Y W w 0 -.o.........",
"........o.! @ Q o.#.%.%.#.o.' = H #.&.o.#.o.o.#.A < -. .........",
"........o.^ @ W o.K h d S | _ = F T D H D I A _ A 3 -.o.........",
"........o.! @ Q T < o . : D ' - D M x x z B d Y A 3 -...........",
"....o.| O.^ @ ^ v @ C ! o f [ = D i 3 8 2 a ; V A 3 ;.O.X.X. .X.",
"......o.o.Q @ ^ b # k b + j [ - D q - : $ r . M D 3 -. .X. .O. .",
"....| o.o.^ @ Q ( 2 $ @ < I ' % J $.#.$.@.:._ { V 3 %.X.....| o.",
"....o.o.o.Q @ Q } / v v R  .) - D o.o.o.| { @ y J 3 -.O...o.| X.",
"........X.) + U { { o.| } { ^ = D | { { } @.f D B 3 -.........@.",
"&.......X.:.% < q 6 5 0 6 6 6 = 3 0 8 8 8 8 0 q % m O.......| 3.",
"4.| ....O.| _ p p y i p p p y a a d a d a a a i n o.........O.q.",
"w.@..... . .| O.X.O.O.O.O.O.O.O.o.o.o.o.o.o.o.@.O. .........@.w.",
"w.=.............................................o.| ......| q.w.",
"w.w.&.............................................o.....| <.w.w.",
"w.w.q...................................................@.w.w.w.",
"w.w.w.7.| ..........................................| &.w.w.w.w.",
"w.w.w.w.8.@.| | ................................| | @.q.w.w.w.w.",
"w.w.w.w.w.8.&.| ..| ............................| :.w.w.w.w.w.w.",
"w.w.w.w.w.w.w.>.@.| ........................| @.6.w.w.w.w.w.w.w.",
"w.w.w.w.w.w.w.w.q.6.*...................O.:.6.w.w.w.w.w.w.w.w.w."
};
